<?xml version="1.0" encoding="UTF-8"?>
<svg version="1.1" xmlns="http://www.w3.org/2000/svg" width="590" height="590">
<path d="M0 0 C194.7 0 389.4 0 590 0 C590 194.7 590 389.4 590 590 C395.3 590 200.6 590 0 590 C0 395.3 0 200.6 0 0 Z " fill="#FEFEFE" transform="translate(0,0)"/>
<path d="M0 0 C4.06276768 1.40953164 5.92751797 3.46603864 8.0625 7.0625 C11.80979168 14.93942928 14.38035705 22.98000927 16.4375 31.4375 C16.73148682 32.63391113 17.02547363 33.83032227 17.32836914 35.06298828 C21.06266792 50.70154413 23.82294878 66.52845764 26.58990479 82.36120605 C27.08037902 85.1646942 27.57380978 87.96764971 28.06787109 90.77050781 C31.15425243 108.29106252 34.21793654 125.81525699 37.09326172 143.37182617 C42.20474415 187.03792675 42.20474415 187.03792675 58.0625 227.0625 C61.2656615 226.38712247 61.2656615 226.38712247 62.30859375 223.578125 C62.70175781 222.50046875 63.09492188 221.4228125 63.5 220.3125 C63.89058594 219.26578125 64.28117188 218.2190625 64.68359375 217.140625 C68.29815075 206.65070158 71.1128906 196.12328094 73.3125 185.25 C73.45734833 184.54318085 73.60219666 183.83636169 73.75143433 183.10812378 C77.57014546 164.39651635 80.57909019 145.54157975 83.65156555 126.69631958 C101.40079784 17.83398941 101.40079784 17.83398941 113.0625 3.0625 C113.536875 2.44375 114.01125 1.825 114.5 1.1875 C116.0625 0.0625 116.0625 0.0625 118.4375 -0.4375 C122.17050197 0.27354799 123.89349149 2.11156052 126.0625 5.0625 C145.43628424 34.0920288 146.13428052 81.92186449 151.69554138 115.76169205 C155.17427335 136.92592604 158.8693998 158.02701257 163.0625 179.0625 C163.43007296 180.95956077 163.79730132 182.85668837 164.1640625 184.75390625 C165.79325774 193.01538809 167.80280773 201.13792305 170.0625 209.25 C170.29976807 210.11238281 170.53703613 210.97476563 170.78149414 211.86328125 C172.34699292 217.29332253 174.39511475 222.07839868 177.0625 227.0625 C180.22870393 225.71224873 180.90935927 225.3891713 182.44140625 222.12109375 C182.83199219 220.92613281 183.22257812 219.73117187 183.625 218.5 C184.01816406 217.32308594 184.41132813 216.14617187 184.81640625 214.93359375 C185.11514648 213.99664673 185.11514648 213.99664673 185.41992188 213.04077148 C185.86032476 211.68492629 186.32107092 210.33556936 186.79882812 208.99243164 C188.92246725 202.96126951 190.24054758 196.8994355 191.4375 190.625 C191.75666382 188.9848291 191.75666382 188.9848291 192.08227539 187.31152344 C192.5271644 185.02146583 192.96960367 182.73093104 193.40966797 180.43994141 C194.02169985 177.27358051 194.65032548 174.11107564 195.28515625 170.94921875 C197.92520414 157.68510719 200.18305961 144.38081546 202.31170654 131.02755737 C205.18401913 113.03087632 208.37817757 95.09778654 211.67510986 77.17449951 C212.03459456 75.21463675 212.39026098 73.25407468 212.74560547 71.29345703 C215.03113031 58.70255245 217.62374747 46.20478864 220.5625 33.75 C220.83513672 32.57550293 221.10777344 31.40100586 221.38867188 30.19091797 C226.92186342 7.33232724 226.92186342 7.33232724 234.0625 1.0625 C237.0625 -0.0625 237.0625 -0.0625 240.0625 0.0625 C247.08889301 3.66138422 249.67191704 12.49166953 252 19.5625 C256.84010244 36.30925445 260.2228622 53.41732447 263.35546875 70.55078125 C263.5049295 71.36438866 263.65439026 72.17799606 263.80838013 73.01625824 C266.09281233 85.46730145 268.26173079 97.93547939 270.34375 110.421875 C270.5433133 111.61824931 270.5433133 111.61824931 270.74690819 112.8387928 C271.96021937 120.1203163 273.16633628 127.40302109 274.36474609 134.68701172 C277.2279426 152.07163392 280.21034858 169.41521805 283.734375 186.6796875 C283.87485764 187.37577873 284.01534027 188.07186996 284.16007996 188.78905487 C287.4689665 209.27983216 287.4689665 209.27983216 297.0625 227.0625 C297.7225 227.0625 298.3825 227.0625 299.0625 227.0625 C306.99476339 212.07543599 310.17648579 195.24691013 313.3515625 178.74609375 C313.50117935 177.97374893 313.6507962 177.20140411 313.8049469 176.40565491 C317.42256876 157.68546463 320.5052256 138.88071949 323.5625 120.0625 C326.7430476 100.48550593 329.98489159 80.93493255 333.7734375 61.46484375 C333.9165889 60.7267598 334.0597403 59.98867584 334.20722961 59.22822571 C343.21156175 12.97865717 343.21156175 12.97865717 352.0625 2.0625 C355.30569053 -0.09962702 356.29892773 -0.49079699 360.0625 0.0625 C362.08203125 1.8125 362.08203125 1.8125 363.875 4.0625 C364.47957031 4.805 365.08414062 5.5475 365.70703125 6.3125 C366.15433594 6.89 366.60164063 7.4675 367.0625 8.0625 C365.7425 9.3825 364.4225 10.7025 363.0625 12.0625 C361.68687146 10.77284824 360.35483607 9.43560707 359.0625 8.0625 C359.0625 7.4025 359.0625 6.7425 359.0625 6.0625 C355.7699288 6.80226471 355.7699288 6.80226471 354.1875 10.125 C340.31426954 40.33199614 337.51041291 77.11956745 332.14257812 109.55322266 C329.51769655 125.40110607 326.80873443 141.23521869 324.0625 157.0625 C323.94710876 157.72858276 323.83171753 158.39466553 323.71282959 159.08093262 C320.22678925 179.16219493 316.63112905 199.4461475 309.9375 218.75 C309.59344116 219.74700928 309.59344116 219.74700928 309.24243164 220.76416016 C307.23628907 226.22639428 304.96671823 230.79302118 300.0625 234.0625 C297.75 234.625 297.75 234.625 295.0625 234.0625 C279.88506454 221.14553365 277.46335977 190.15873534 274.125 171.6875 C273.77816593 169.79806428 273.43115723 167.90866061 273.08398438 166.01928711 C270.79854052 153.50267163 268.69963876 140.96143642 266.70928955 128.39492798 C263.76900277 109.84576437 260.38987878 91.37939147 256.96142578 72.91503906 C256.40749619 69.93097382 255.85771478 66.94625274 255.31591797 63.95996094 C250.56803356 34.39057401 250.56803356 34.39057401 239.0625 7.0625 C235.83994047 7.76145397 235.83994047 7.76145397 234.59106445 10.70849609 C230.99832393 19.22352261 228.29354457 27.65447438 226.25 36.6875 C226.0071225 37.73431442 226.0071225 37.73431442 225.75933838 38.80227661 C220.69844346 60.72098399 217.2371188 82.98078765 213.54626465 105.16088867 C212.40157335 112.02672569 211.23537629 118.88892716 210.0625 125.75 C209.94905243 126.41377655 209.83560486 127.0775531 209.71871948 127.76144409 C207.5730021 140.28876119 205.35209673 152.80286269 203.08764648 165.30923462 C202.70327062 167.43717501 202.32133455 169.56555793 201.94213867 171.69442749 C199.02049988 188.06949393 195.62090475 204.1703886 190.0625 219.875 C189.72805626 220.82922852 189.72805626 220.82922852 189.38685608 221.80273438 C187.63509162 226.41611287 185.42571281 229.53112655 182.0625 233.0625 C179.0625 234.25 179.0625 234.25 176.0625 234.0625 C162.29249709 223.89892643 159.78114701 197.63552718 156.7421875 182.1875 C156.594097 181.44200583 156.44600651 180.69651165 156.29342842 179.92842674 C152.76855559 162.14122978 149.81502603 144.26284586 146.90527344 126.36663818 C142.1235417 96.9523077 142.1235417 96.9523077 136.8828125 67.6171875 C136.53560402 65.74925285 136.53560402 65.74925285 136.18138123 63.84358215 C132.78821999 45.93828487 129.17425172 27.90330643 122.0625 11.0625 C121.58574829 9.92035034 121.58574829 9.92035034 121.09936523 8.75512695 C120.10104213 6.71769118 120.10104213 6.71769118 117.0625 6.0625 C116.77197754 6.7942041 116.48145508 7.5259082 116.18212891 8.27978516 C115.50705924 9.95759676 114.82017766 11.63081986 114.11083984 13.29443359 C111.31484208 19.95177378 109.40716654 26.68232158 107.6875 33.6875 C107.2380603 35.50906616 107.2380603 35.50906616 106.77954102 37.36743164 C101.49337276 59.28722314 97.92986223 81.54059065 94.38037109 103.79296875 C91.92892192 119.12064227 89.2029338 134.39453572 86.40971375 149.66320801 C85.4901636 154.69386721 84.58633934 159.7270526 83.69474792 164.76274109 C83.09290882 168.15543176 82.4839273 171.54681919 81.87374878 174.9380188 C81.58987003 176.52382765 81.30873822 178.11013152 81.03079224 179.69699097 C73.99216607 219.81591185 73.99216607 219.81591185 64.0625 232.0625 C61.0625 234.0625 61.0625 234.0625 58.25 234.1875 C53.50444966 232.51259988 51.45750246 229.38228192 49.0625 225.0625 C45.99607075 218.17566096 43.86333593 211.20972647 42.08984375 203.89453125 C41.70638039 202.33349419 41.70638039 202.33349419 41.31517029 200.74092102 C38.68217867 189.81604679 36.59858282 178.80981473 34.625 167.75 C34.23794881 165.61429619 33.85065523 163.47863629 33.46313477 161.34301758 C30.99623279 147.66840532 28.69873944 133.97000041 26.5 120.25 C22.0094667 92.24999431 17.50477156 64.21245912 10.875 36.625 C10.71855011 35.96530212 10.56210022 35.30560425 10.40090942 34.62591553 C7.73871038 19.56411084 7.73871038 19.56411084 -0.09448242 7.70532227 C-0.70267822 7.49319092 -1.31087402 7.28105957 -1.9375 7.0625 C-7.39668048 16.09918599 -9.48576817 25.92380189 -11.9375 36.0625 C-12.16809113 37.01304764 -12.39868225 37.96359528 -12.63626099 38.94294739 C-16.49647964 54.96133701 -19.65353064 70.9925103 -22.3125 87.25 C-22.69483074 89.54653484 -23.07806922 91.84291872 -23.4621582 94.13916016 C-24.2445898 98.82214728 -25.02327257 103.50572985 -25.79833984 108.18994141 C-44.09308681 218.68772373 -44.09308681 218.68772373 -54.9375 232.0625 C-57.9375 234.0625 -57.9375 234.0625 -60.25 234.625 C-63.71592326 233.8995742 -65.25267143 232.23012391 -67.40332031 229.4909668 C-72.96901566 220.68097768 -76.00386507 210.45931608 -78.25 200.375 C-78.53214355 199.13951416 -78.81428711 197.90402832 -79.10498047 196.63110352 C-83.43906577 177.21749714 -86.58129709 157.53720801 -89.93017578 137.93603516 C-90.80992533 132.79148294 -91.71011593 127.65082032 -92.62109375 122.51171875 C-92.86197793 121.14594319 -93.10270842 119.78014052 -93.34326172 118.41430664 C-93.76589617 116.01597397 -94.19053942 113.61799397 -94.61767578 111.22045898 C-94.79669434 110.19122314 -94.97571289 109.1619873 -95.16015625 108.1015625 C-95.31234619 107.23740723 -95.46453613 106.37325195 -95.62133789 105.48291016 C-95.94802138 102.98195256 -95.99351496 100.58176567 -95.9375 98.0625 C-93.9575 98.0625 -91.9775 98.0625 -89.9375 98.0625 C-89.82554291 98.74534561 -89.71358582 99.42819122 -89.59823608 100.13172913 C-82.45864708 144.72333655 -82.45864708 144.72333655 -73.9375 189.0625 C-73.62353271 190.55934326 -73.62353271 190.55934326 -73.30322266 192.08642578 C-70.84792208 203.62538313 -67.64769805 214.24096903 -62.9375 225.0625 C-62.6075 226.0525 -62.2775 227.0425 -61.9375 228.0625 C-58.87198371 227.39644376 -58.87198371 227.39644376 -57.796875 225.21875 C-51.14238926 209.28547428 -47.1897733 192.36990868 -44.0859375 175.43359375 C-43.96032881 174.755725 -43.83472012 174.07785625 -43.7053051 173.37944603 C-40.84673193 157.95123192 -38.29059046 142.47371271 -35.75671387 126.98950195 C-24.88043668 60.57803307 -24.88043668 60.57803307 -18.43640137 33.70678711 C-17.96332661 31.73276779 -17.50135918 29.75609625 -17.04003906 27.77929688 C-14.83775402 18.99366028 -11.76856412 7.54525923 -4.90234375 1.17407227 C-2.9375 0.0625 -2.9375 0.0625 0 0 Z " fill="#4B70E2" transform="translate(159.9375,177.9375)"/>
<path d="M0 0 C3.444375 -0.0825 6.88875 -0.165 10.4375 -0.25 C12.03742798 -0.30462402 12.03742798 -0.30462402 13.66967773 -0.36035156 C21.20561096 -0.4468032 27.29397554 0.87807722 33.15625 5.81640625 C33.5996875 6.39261719 34.043125 6.96882813 34.5 7.5625 C34.9640625 8.14128906 35.428125 8.72007812 35.90625 9.31640625 C39.24827356 14.46073538 38.6163033 21.14165624 38 27 C36.04498215 32.17552443 32.6689786 36.0391843 28 39 C22.29875757 41.54600938 16.7366945 41.22672654 10.625 41.125 C7.11875 41.08375 3.6125 41.0425 0 41 C0 27.47 0 13.94 0 0 Z " fill="#476EE1" transform="translate(237,426)"/>
<path d="M0 0 C9.24 0 18.48 0 28 0 C28 2.64 28 5.28 28 8 C22.39 8 16.78 8 11 8 C11 10.31 11 12.62 11 15 C16.28 15 21.56 15 27 15 C27 17.64 27 20.28 27 23 C21.72 23 16.44 23 11 23 C11 26.3 11 29.6 11 33 C16.94 33 22.88 33 29 33 C29 35.64 29 38.28 29 41 C19.43 41 9.86 41 0 41 C0 27.47 0 13.94 0 0 Z " fill="#446BE1" transform="translate(282,426)"/>
<path d="M0 0 C3.86532283 -0.70343191 7.1628796 -0.94042138 11 0 C14.35715919 3.2736218 16.69602105 6.93337813 19 11 C21.84054134 8.31726651 23.89023634 6.223749 25.625 2.6875 C28 0 28 0 30.6953125 -0.37890625 C33.48749877 -0.37533568 36.22056987 -0.25877453 39 0 C37.10750369 3.46957657 35.18532477 6.74081887 32.8828125 9.9609375 C32.13773437 11.00507813 31.39265625 12.04921875 30.625 13.125 C29.89539063 14.11757813 29.16578125 15.11015625 28.4140625 16.1328125 C26.70179288 18.86350816 26.70179288 18.86350816 27.5234375 21.5234375 C29.1954862 24.32787896 31.01736647 26.90508259 33 29.5 C35.60892379 32.91462084 37.58471712 35.93106172 39 40 C35.42026184 40.80712259 32.55389184 41.00275786 29 40 C25.36966453 36.36434925 22.68717486 32.36179108 20 28 C17.27236738 30.5767423 15.30658589 33.05044054 13.375 36.25 C11.45629957 38.92035627 10.65777403 39.8700207 7.390625 40.515625 C4.88064434 40.50144432 2.4836405 40.35340339 0 40 C1.76530652 34.58091951 5.19679495 30.55558501 8.71875 26.171875 C10.2828367 24.18509965 10.2828367 24.18509965 12 21 C11.69465685 18.33290627 11.69465685 18.33290627 10 16 C9.38125 15.01902344 8.7625 14.03804688 8.125 13.02734375 C7.42375 12.00769531 6.7225 10.98804688 6 9.9375 C3.77704589 6.69705402 1.64562703 3.57409621 0 0 Z " fill="#456CE1" transform="translate(317,426)"/>
<path d="M0 0 C3.155625 -0.061875 6.31125 -0.12375 9.5625 -0.1875 C10.5429126 -0.21481201 11.5233252 -0.24212402 12.53344727 -0.27026367 C18.14085004 -0.32313688 22.08324351 0.22826737 27 3 C29.96549903 7.44824854 29.63449543 11.78303754 29 17 C26.69861103 20.49470177 24.01431873 21.95278642 20 23 C16.64688963 23.15452122 13.36061099 23.08961629 10 23 C10 27.29 10 31.58 10 36 C6.7 36 3.4 36 0 36 C0 24.12 0 12.24 0 0 Z " fill="#4A70E2" transform="translate(54,88)"/>
<path d="M0 0 C1.01964844 -0.00773437 2.03929687 -0.01546875 3.08984375 -0.0234375 C7.23626153 0.53232415 9.85013171 2.24624332 12.875 5.0625 C14.0625 7.375 14.0625 7.375 14.0625 15.375 C7.7925 15.375 1.5225 15.375 -4.9375 15.375 C-3.9475 17.025 -2.9575 18.675 -1.9375 20.375 C3.03898582 21.58116521 8.55580133 20.77857262 13.0625 18.375 C13.0625 20.685 13.0625 22.995 13.0625 25.375 C6.94803964 28.25307302 0.68697121 28.13607641 -5.9375 27.375 C-9.55614002 25.8028081 -11.30139698 23.44480963 -13.3125 20.0625 C-14.57362425 14.63966572 -14.77080329 10.95232409 -12.1875 6.0625 C-8.36439237 1.49601033 -6.04818738 -0.04576182 0 0 Z " fill="#446CE1" transform="translate(180.9375,96.625)"/>
<path d="M0 0 C2.97 0 5.94 0 9 0 C9.06058594 1.35996094 9.12117188 2.71992187 9.18359375 4.12109375 C9.26798171 5.89324097 9.35263058 7.66537577 9.4375 9.4375 C9.47681641 10.33533203 9.51613281 11.23316406 9.55664062 12.15820312 C9.61948242 13.43920898 9.61948242 13.43920898 9.68359375 14.74609375 C9.72025146 15.53685303 9.75690918 16.3276123 9.79467773 17.14233398 C9.80563257 19.01401441 9.80563257 19.01401441 11 20 C12.66617115 20.04063832 14.33388095 20.042721 16 20 C18.47045803 16.18384532 18.43831912 12.15255752 18.625 7.75 C18.66367188 7.00492187 18.70234375 6.25984375 18.7421875 5.4921875 C18.83605108 3.6618476 18.91909718 1.83095857 19 0 C21.64 0 24.28 0 27 0 C27 8.91 27 17.82 27 27 C24.36 27 21.72 27 19 27 C18.67 26.01 18.34 25.02 18 24 C17.525625 24.495 17.05125 24.99 16.5625 25.5 C12.79831299 27.70342654 9.257912 27.86097485 5 27 C2.25815001 24.39524251 0.09927486 21.80402698 -0.11352539 17.93701172 C-0.10828857 17.10959473 -0.10305176 16.28217773 -0.09765625 15.4296875 C-0.09443359 14.53378906 -0.09121094 13.63789062 -0.08789062 12.71484375 C-0.07951172 11.77769531 -0.07113281 10.84054688 -0.0625 9.875 C-0.05798828 8.93011719 -0.05347656 7.98523438 -0.04882812 7.01171875 C-0.03702375 4.6744523 -0.01908799 2.33721831 0 0 Z " fill="#456CE1" transform="translate(88,97)"/>
<path d="M0 0 C0.72832031 0.00515625 1.45664063 0.0103125 2.20703125 0.015625 C7.56470238 0.09485119 7.56470238 0.09485119 9.875 1.25 C9.875 3.56 9.875 5.87 9.875 8.25 C9.04742187 8.00443359 9.04742187 8.00443359 8.203125 7.75390625 C5.60885993 7.19239586 3.27664589 7.15260992 0.625 7.1875 C-0.71304688 7.20103516 -0.71304688 7.20103516 -2.078125 7.21484375 C-2.75359375 7.22644531 -3.4290625 7.23804687 -4.125 7.25 C-4.125 7.91 -4.125 8.57 -4.125 9.25 C-3.29355469 9.43175781 -2.46210938 9.61351563 -1.60546875 9.80078125 C-0.51878906 10.05214844 0.56789062 10.30351563 1.6875 10.5625 C3.30591797 10.92794922 3.30591797 10.92794922 4.95703125 11.30078125 C7.86195568 12.24575667 9.15572782 12.76266808 10.875 15.25 C11.43095912 17.95348746 11.30672844 20.5289747 10.875 23.25 C9.33161909 25.42476401 8.23834727 26.06832637 5.875 27.25 C3.19748582 27.34809858 0.55190283 27.3890397 -2.125 27.375 C-3.23101562 27.38080078 -3.23101562 27.38080078 -4.359375 27.38671875 C-9.8716804 27.3766598 -9.8716804 27.3766598 -12.125 26.25 C-12.125 23.94 -12.125 21.63 -12.125 19.25 C-11.57328125 19.41371094 -11.0215625 19.57742187 -10.453125 19.74609375 C-7.85885993 20.30760414 -5.52664589 20.34739008 -2.875 20.3125 C-1.53695312 20.29896484 -1.53695312 20.29896484 -0.171875 20.28515625 C0.50359375 20.27355469 1.1790625 20.26195313 1.875 20.25 C1.875 19.26 1.875 18.27 1.875 17.25 C1.19953125 17.14042969 0.5240625 17.03085938 -0.171875 16.91796875 C-1.50992188 16.68013672 -1.50992188 16.68013672 -2.875 16.4375 C-3.75671875 16.28667969 -4.6384375 16.13585937 -5.546875 15.98046875 C-8.41024265 15.16918125 -10.02281841 14.3570031 -12.125 12.25 C-12.65625 10.09375 -12.65625 10.09375 -12.625 7.75 C-12.6353125 6.9765625 -12.645625 6.203125 -12.65625 5.40625 C-12.125 3.25 -12.125 3.25 -10.6015625 1.484375 C-7.10569903 -0.25804276 -3.81172987 -0.10910139 0 0 Z " fill="#486FE2" transform="translate(151.125,96.75)"/>
<path d="M0 0 C8.28571429 0 8.28571429 0 13 3 C16.64154224 6.91833405 16.50264642 10.21659948 16.3515625 15.3671875 C15.86940755 18.97799234 14.78085167 20.67009725 12 23 C7.65278653 25.46733737 5.44741679 25 0 25 C0 16.75 0 8.5 0 0 Z " fill="#FDFDFE" transform="translate(248,434)"/>
<path d="M0 0 C2.97 0 5.94 0 9 0 C9 12.54 9 25.08 9 38 C6.03 38 3.06 38 0 38 C0 25.46 0 12.92 0 0 Z " fill="#4B71E2" transform="translate(123,86)"/>
<path d="M0 0 C6.625 -0.25 6.625 -0.25 10 2 C10.39570119 5.0996593 10.49754211 7.12198451 8.9375 9.875 C5.99772876 11.58196395 3.32129197 11.18799766 0 11 C0 7.37 0 3.74 0 0 Z " fill="#F4F6FD" transform="translate(64,94)"/>
<path d="M0 0 C2.31 0 4.62 0 7 0 C7.66 1.32 8.32 2.64 9 4 C5.37 4 1.74 4 -2 4 C-1.34 2.68 -0.68 1.36 0 0 Z " fill="#F3F6FD" transform="translate(178,103)"/>
</svg>
